<svg id="Calque_1" data-name="Calque 1" xmlns="http://www.w3.org/2000/svg" viewBox="0 0 1152.61 320.97"><defs><style>.cls-1{fill:#c1272d;}.cls-2{fill:#fff;}.cls-3{fill:#f2f2f2;}</style></defs><path class="cls-1" d="M1142.24,645.56V439.75h392.45v208H630.55a4.9,4.9,0,0,1-.1-1,.89.89,0,0,1,.23-.44,1.85,1.85,0,0,1,1.75-.74Zm205.43-42.12c12.49,0,24.63.13,36.76,0,18.38-.25,30.19-9.86,33.77-27.81,3.69-18.47,3.53-37.16.66-55.65-3.28-21.11-15.36-30.82-36.77-30.93-9.83,0-19.66,0-29.49,0-1.59,0-3.18.18-4.93.29Zm-13.74-57.33c-2-11.85-2.89-23.72-6-35-4.63-16.65-16-24.14-33.46-24.13s-28.89,7.5-33.28,24.28a144.69,144.69,0,0,0-4.52,35.89,130.72,130.72,0,0,0,4.47,33.9c4.56,17,16,24.41,33.73,24.38,17.23,0,28.52-7.65,33.15-24.51C1331.09,569.68,1332,557.82,1333.93,546.11Zm166,57.07V587.36h-44.34v-36H1496v-16h-40.43V505.06h6.1c11,0,22,.1,33-.12,1.48,0,4.08-1.54,4.2-2.59.49-4.22.2-8.53.2-13.06h-62.28V603.18Zm-254.14-78c2.35-20.69-6.77-34.09-25.36-37.61A55.21,55.21,0,0,0,1210,487c-17.66.06-28.89,8.07-32.86,25.34-2.44,10.6-3.32,21.7-3.65,32.62-.38,12.94.16,26,4.46,38.48,4.15,12.07,12.28,19.62,25.07,21.54a70.22,70.22,0,0,0,11,.41c23.32-.19,34.76-21.5,31.84-43.41h-17.68c-.48,4.67-.77,8.66-1.32,12.61-1.52,11.12-7.62,17-17,16.42-7.38-.41-12.36-4.63-14.34-13.64-1.56-7.11-2.85-14.49-2.68-21.72.31-13.92.91-27.93,3-41.67,1.46-9.71,8.38-13.5,17.94-12.58,7.37.7,12.4,6.72,13.22,15.78.23,2.6.52,5.2.79,7.94Z" transform="translate(-495.75 -439.75)"/><path class="cls-2" d="M635.26,603.24c3.66-12.8,7.09-24.77,10.49-36.73,6.86-24.16,13.79-48.29,20.46-72.49,1-3.78,2.64-5,6.5-4.8,5.81.34,11.65.09,18.11.09,10,37.85,19.94,75.67,30,113.78H702c-2.35-9.2-4.69-18.35-7.06-27.64H661.46c-2.12,8-4.42,15.92-6.3,24-.71,3.06-2,4.06-5.06,3.9C645.47,603.06,640.81,603.24,635.26,603.24Zm43.87-97.41-1.08.05q-6.57,27.27-13.15,54.62h27Z" transform="translate(-495.75 -439.75)"/><path class="cls-2" d="M1036.58,519.28h-17.43c-.18-2-.24-3.77-.51-5.53-1.22-8-5.6-12-13.66-12.65-8.72-.69-14.53,2.46-17,9.2-3,8.3-.73,16.67,6.25,21.26a67.9,67.9,0,0,0,11.16,5.47c3.68,1.55,7.52,2.69,11.26,4.08,19.68,7.28,26.65,19.79,22.17,40.19-2.48,11.24-9.48,18.51-20.51,21.68a56.13,56.13,0,0,1-27.19,1.14c-16.07-3.32-24.89-16.35-24-36.11h17.38c.47,3.49.72,6.76,1.39,10,1.79,8.58,7.06,12.88,16.15,13.46,9.44.59,16.17-3.29,18.77-10.83,2.67-7.76.11-17.17-6.34-21.46-3-2-6.51-3.26-9.89-4.61-6.62-2.65-13.61-4.57-19.92-7.8-12.8-6.55-18-18.39-15.51-33.17,2.36-13.89,11.33-23.19,25.32-25.19a70.9,70.9,0,0,1,18.35-.24C1029.71,490.12,1038.39,501.68,1036.58,519.28Z" transform="translate(-495.75 -439.75)"/><path class="cls-2" d="M1119.58,519.27h-17.42c-.18-2-.24-3.77-.51-5.54-1.22-8-5.6-12-13.66-12.63-8.73-.69-14.53,2.46-17,9.21-3,8.31-.73,16.67,6.26,21.26a68.77,68.77,0,0,0,11.17,5.46c3.67,1.55,7.51,2.69,11.25,4.08,19.68,7.28,26.65,19.81,22.16,40.2-2.48,11.24-9.48,18.51-20.52,21.68a56.25,56.25,0,0,1-27.19,1.13c-16.07-3.33-24.91-16.41-24-35.68h17.44c.42,3.07.67,6.34,1.33,9.53,1.76,8.42,6.9,12.73,15.67,13.4,9.52.73,16.35-3,19.12-10.31,2.83-7.53.44-17.32-5.81-21.65-3.09-2.13-6.77-3.47-10.3-4.89-6.61-2.67-13.61-4.57-19.92-7.81-12.8-6.55-18-18.39-15.5-33.18,2.37-13.88,11.34-23.17,25.34-25.18a71.79,71.79,0,0,1,18.35-.23C1112.73,490.12,1121.43,501.73,1119.58,519.27Z" transform="translate(-495.75 -439.75)"/><path class="cls-2" d="M914.11,551v37.1H958.3v14.81h-62V489.58h60.65V504.1H914.37V536H954.6v15Z" transform="translate(-495.75 -439.75)"/><path class="cls-2" d="M799,524.64H781.27c-.48-3.5-.75-6.8-1.39-10-1.66-8.5-6.32-13.05-13.65-13.59-9.51-.7-15.11,2.7-17.83,11.66-1.48,4.9-2.76,10.1-2.73,15.16.08,15.44.7,30.89,1.45,46.31.15,3,1.58,6.11,2.87,9,2.7,6,7.68,8.38,14.1,8.39s11.18-2.71,13.46-8.49c1.74-4.41,2.4-9.28,3.26-14,.38-2,.07-4.22.07-6.56h17.38c4.94,18.45-8.15,39.3-26.78,41.88a59.17,59.17,0,0,1-17.82-.39c-10.92-1.89-18.35-8.82-21.62-19.25a110.76,110.76,0,0,1-4.54-22.89c-1.45-16-1.42-32,2.41-47.69,6.06-24.86,35-35.75,56.34-21.29C797.45,500.43,798.72,512.11,799,524.64Z" transform="translate(-495.75 -439.75)"/><path class="cls-2" d="M865.05,562.42h16.33c4.75,23.33-11.65,43.28-35,42.82-19.1-.39-29.67-8.87-33.81-28.8a144.44,144.44,0,0,1,.36-62c5.74-25.06,34.49-36.07,56.09-21.79,11.43,7.56,12.76,19.37,12.91,32H864.32c-.5-3.59-.79-7.19-1.53-10.7-1.7-8-6.52-12.44-13.74-12.92-9.21-.6-14.59,2.5-17.31,10.95-1.61,5-3,10.38-3,15.59,0,15.44.65,30.88,1.34,46.31.13,2.88,1.43,5.8,2.57,8.54,2.68,6.44,7.78,9.17,14.65,9.11s11.75-3.29,13.72-9.58C862.94,575.83,863.67,569.36,865.05,562.42Z" transform="translate(-495.75 -439.75)"/><path class="cls-1" d="M585.58,597.12l-89.4-40c-1-12.8-1.05-12.81,10.16-17.82q37.13-16.62,74.27-33.21c1.34-.6,2.71-1.13,4.94-2.05,0,4.76.33,9-.2,13.19-.17,1.36-2.42,2.85-4,3.57C560.63,530,539.9,539,519.18,548.12c-1.47.65-2.9,1.39-5.14,2.47l29,12.76c12.49,5.48,24.92,11.12,37.51,16.36,3.8,1.58,5.58,3.52,5.06,7.7C585.3,590.19,585.58,593.05,585.58,597.12Z" transform="translate(-495.75 -439.75)"/><path class="cls-1" d="M1558.4,503.87c10.11,4.5,19.34,8.59,28.56,12.72,19,8.5,37.92,17.1,57,25.46,3,1.32,4,2.78,4.34,6.16.61,6.55-1.55,9.74-7.86,12.43-25.87,11-51.4,22.81-77.06,34.31-1.33.59-2.72,1-4.92,1.88,0-4.64-.33-8.76.19-12.77.18-1.42,2.24-3,3.81-3.75,20.52-9.13,41.11-18.1,61.67-27.12,1.67-.74,3.31-1.53,5.82-2.68-2.12-1-3.55-1.71-5-2.35-20.25-8.91-40.45-17.94-60.82-26.59-4.3-1.83-6.45-3.92-5.76-8.72C1558.71,510.25,1558.4,507.55,1558.4,503.87Z" transform="translate(-495.75 -439.75)"/><path class="cls-2" d="M1347.67,603.44V489.31c1.75-.11,3.34-.29,4.93-.29,9.83,0,19.66,0,29.49,0,21.41.11,33.49,9.82,36.77,30.93,2.87,18.49,3,37.18-.66,55.65-3.58,17.95-15.39,27.56-33.77,27.81C1372.3,603.57,1360.16,603.44,1347.67,603.44Zm18.8-14.36c4.88,0,9.19,0,13.51,0,10.43-.06,16-3.78,18.54-13.82a79.25,79.25,0,0,0,2.8-20.66,355.59,355.59,0,0,0-2.74-37.16c-.72-5.88-4.14-11.53-10.49-12.76-7-1.36-14.33-1.19-21.62-1.69Z" transform="translate(-495.75 -439.75)"/><path class="cls-2" d="M1333.93,546.11c-1.91,11.71-2.84,23.57-5.93,34.84-4.63,16.86-15.92,24.49-33.15,24.51-17.75,0-29.17-7.41-33.73-24.38a130.72,130.72,0,0,1-4.47-33.9,144.69,144.69,0,0,1,4.52-35.89c4.39-16.78,15.94-24.28,33.28-24.28s28.83,7.48,33.46,24.13C1331,522.39,1332,534.26,1333.93,546.11Zm-59.52,1.13c1.5,9.81,2.54,20.78,5.12,31.37,1,4.16,4.71,8.72,8.47,10.92a13.92,13.92,0,0,0,20.4-7.92,122.49,122.49,0,0,0,4.9-27.31c1.07-14.45.79-29-4.36-42.88-2.13-5.75-6.22-9.4-12.55-10s-11.63,1.34-14.82,7.1a27.46,27.46,0,0,0-3.35,8.79C1276.76,526.86,1275.75,536.45,1274.41,547.24Z" transform="translate(-495.75 -439.75)"/><path class="cls-2" d="M1500,603.18h-63.18V489.29h62.28c0,4.53.29,8.84-.2,13.06-.12,1-2.72,2.56-4.2,2.59-11,.22-22,.12-33,.12h-6.1v30.29H1496v16h-40.37v36H1500Z" transform="translate(-495.75 -439.75)"/><path class="cls-2" d="M1245.81,525.16H1227.7c-.27-2.74-.56-5.34-.79-7.94-.82-9.06-5.85-15.08-13.22-15.78-9.56-.92-16.48,2.87-17.94,12.58-2.07,13.74-2.67,27.75-3,41.67-.17,7.23,1.12,14.61,2.68,21.72,2,9,7,13.23,14.34,13.64,9.4.54,15.5-5.3,17-16.42.55-4,.84-7.94,1.32-12.61h17.68c2.92,21.91-8.52,43.22-31.84,43.41a70.22,70.22,0,0,1-11-.41c-12.79-1.92-20.92-9.47-25.07-21.54-4.3-12.5-4.84-25.54-4.46-38.48.33-10.92,1.21-22,3.65-32.62,4-17.27,15.2-25.28,32.86-25.34a55.21,55.21,0,0,1,10.46.51C1239,491.07,1248.16,504.47,1245.81,525.16Z" transform="translate(-495.75 -439.75)"/><path class="cls-1" d="M1142.12,645.68V439.87h392.44v208H630.43a5.31,5.31,0,0,1-.11-1,.92.92,0,0,1,.24-.43,2.59,2.59,0,0,1,.76-.61,2.68,2.68,0,0,1,1-.14Zm205.43-42.12c12.49,0,24.63.13,36.76,0,18.37-.24,30.18-9.85,33.77-27.8,3.69-18.48,3.53-37.16.66-55.66-3.28-21.1-15.36-30.82-36.77-30.92-9.83-.05-19.66,0-29.49,0-1.59,0-3.19.18-4.93.28Zm-13.74-57.33c-2-11.85-2.89-23.72-6-35-4.64-16.65-16-24.14-33.46-24.13s-28.89,7.5-33.29,24.28a145.15,145.15,0,0,0-4.51,35.89,130.3,130.3,0,0,0,4.47,33.9c4.56,17,16,24.41,33.72,24.38,17.23,0,28.53-7.65,33.16-24.51C1331,569.8,1331.89,557.94,1333.81,546.23Zm166,57.07V587.48h-44.34v-36h40.37v-16h-40.44V505.18h6.11c11,0,22,.1,33-.13,1.48,0,4.08-1.54,4.2-2.59.48-4.21.2-8.52.2-13h-62.28V603.3Zm-254.14-78c2.35-20.68-6.77-34.08-25.37-37.6a55.9,55.9,0,0,0-10.45-.52c-17.66.07-28.9,8.07-32.87,25.35-2.44,10.6-3.31,21.7-3.64,32.61-.39,12.95.16,26,4.46,38.49,4.15,12.07,12.28,19.61,25.06,21.54a70.35,70.35,0,0,0,11,.41c23.31-.19,34.76-21.5,31.84-43.41H1228c-.48,4.67-.77,8.66-1.31,12.61-1.52,11.12-7.62,17-17,16.42-7.37-.41-12.36-4.63-14.33-13.64-1.56-7.11-2.85-14.49-2.69-21.72.32-13.92.92-27.93,3-41.67,1.46-9.72,8.37-13.5,17.94-12.59,7.37.71,12.4,6.73,13.21,15.79.24,2.6.52,5.2.8,7.93Z" transform="translate(-495.75 -439.75)"/><path class="cls-1" d="M1366.47,589.08V503c7.29.5,14.6.33,21.62,1.69,6.35,1.23,9.77,6.88,10.49,12.76a355.59,355.59,0,0,1,2.74,37.16,79.25,79.25,0,0,1-2.8,20.66c-2.54,10-8.11,13.76-18.54,13.82C1375.66,589.1,1371.35,589.08,1366.47,589.08Z" transform="translate(-495.75 -439.75)"/><path class="cls-1" d="M1274.41,547.24c1.34-10.79,2.35-20.38,3.81-29.9a27.46,27.46,0,0,1,3.35-8.79c3.19-5.76,8.52-7.66,14.82-7.1s10.42,4.22,12.55,10c5.15,13.89,5.43,28.43,4.36,42.88a122.49,122.49,0,0,1-4.9,27.31,13.92,13.92,0,0,1-20.4,7.92c-3.76-2.2-7.47-6.76-8.47-10.92C1277,568,1275.91,557.05,1274.41,547.24Z" transform="translate(-495.75 -439.75)"/><rect x="125.25" y="205.25" width="525" height="3"/><path class="cls-3" d="M662.61,739.28c1.89,10.07,7.45,16,17.76,16,11.47,0,15.87-6.93,15.87-15.16,0-8.55-3.14-13.86-17-18-13.27-4-19-9.2-19-20.14,0-10,6-19.27,19.46-19.27,13.81,0,19.64,10.18,20.44,19.38h-5c-1.43-8.12-5.83-14-15.69-14-9.05,0-14,5.08-14,13.53s4.13,11.58,15.69,15c17.67,5.3,20.27,13.85,20.27,23,0,11.15-6.73,20.78-21.25,20.78-15.69,0-21.43-11-22.6-21.22Z" transform="translate(-495.75 -439.75)"/><path class="cls-3" d="M878.7,739.39c-3,12-10.31,21.11-23.58,21.11-18,0-27.53-17.32-27.53-38.65,0-20.46,9.33-39.08,27.62-39.08,13.54,0,21.52,9.1,23.58,21.76H874c-2.87-9.85-8.16-16.34-19-16.34-15.6,0-22.15,17.21-22.15,33.56s6.46,33.34,22.51,33.34c10.22,0,15.42-6.39,18.56-15.7Z" transform="translate(-495.75 -439.75)"/><path class="cls-3" d="M1007.91,683.85h4.84v33h37.66v-33h4.84v75.79h-4.84V722.29h-37.66v37.35h-4.84Z" transform="translate(-495.75 -439.75)"/><path class="cls-3" d="M1242.11,721.21c0,20.67-9.15,39.51-28.52,39.51-17.66,0-28-17.21-28-39,0-21.44,10-39,28.6-39C1231.44,682.77,1242.11,699.12,1242.11,721.21Zm-51.29.21c0,17.43,8,33.89,23,33.89,16.23,0,23.05-16,23.05-34,0-17.64-7.71-33.12-22.87-33.12C1197.9,688.19,1190.82,704.32,1190.82,721.42Z" transform="translate(-495.75 -439.75)"/><path class="cls-3" d="M1425.2,721.21c0,20.67-9.15,39.51-28.51,39.51-17.67,0-28-17.21-28-39,0-21.44,10-39,28.6-39C1414.53,682.77,1425.2,699.12,1425.2,721.21Zm-51.29.21c0,17.43,8,33.89,23,33.89,16.22,0,23-16,23-34,0-17.64-7.71-33.12-22.87-33.12C1381,688.19,1373.91,704.32,1373.91,721.42Z" transform="translate(-495.75 -439.75)"/><path class="cls-3" d="M1509,683.85h4.84v70.37h33.71l-.9,5.42H1509Z" transform="translate(-495.75 -439.75)"/></svg>